<svg width="15" height="15" viewBox="0 0 30 35" fill="none" xmlns="http://www.w3.org/2000/svg">
    <path d="M7.85742 21.1074C8.37227 21.1075 8.81289 21.4784 8.90234 21.9854L10.9688 33.7549C11.0834 34.4045 10.5833 34.9999 9.92383 35H7.03125C6.55074 35 6.1297 34.6769 6.00586 34.2119L2.86523 22.4424C2.68615 21.7684 3.19331 21.1076 3.89062 21.1074H7.85742ZM18.5742 21.1084C19.2332 21.1088 19.7326 21.7034 19.6191 22.3525L17.5527 34.1221C17.4636 34.6299 17.0227 34.9997 16.5078 35H13.3369C12.8218 35 12.3812 34.6294 12.292 34.1221L10.2256 22.3525C10.1113 21.7031 10.6112 21.1084 11.2705 21.1084H18.5742ZM25.9541 21.1084C26.6507 21.1088 27.1588 21.77 26.9795 22.4434L23.8389 34.2129C23.7149 34.6769 23.2945 34.9999 22.8135 35H19.9209C19.2615 35 18.7623 34.4054 18.876 33.7559L20.9424 21.9863C21.0317 21.4784 21.4723 21.1084 21.9873 21.1084H25.9541ZM28.4277 13.9248C29.2093 13.9248 29.8426 14.5583 29.8428 15.3398V18.1357C29.8426 18.9173 29.2093 19.5508 28.4277 19.5508H1.41504C0.633632 19.5506 0.000159462 18.9172 0 18.1357V15.3398C0.000163841 14.5584 0.633635 13.925 1.41504 13.9248H28.4277ZM26.0801 7.12109C26.2341 7.35031 26.3213 7.62356 26.3213 7.91016V11.2363C26.3211 12.018 25.688 12.6512 24.9062 12.6514H4.93652C4.15479 12.6512 3.52165 12.0181 3.52148 11.2363V8.44043C3.52164 7.65869 4.15478 7.02555 4.93652 7.02539H13.4883L10.7227 5.67676C10.0202 5.33412 9.72884 4.48677 10.0713 3.78418L11.917 0L25.5264 6.6377C25.7174 6.73111 25.8817 6.86475 26.0098 7.02539L26.0801 7.12109Z" fill="#101007"/>
</svg>
